<?xml version="1.0" standalone="no"?>
<!DOCTYPE svg PUBLIC "-//W3C//DTD SVG 20010904//EN"
 "http://www.w3.org/TR/2001/REC-SVG-20010904/DTD/svg10.dtd">
<svg version="1.0" xmlns="http://www.w3.org/2000/svg"
 width="1930.000000pt" height="2400.000000pt" viewBox="0 0 1930.000000 2400.000000"
 preserveAspectRatio="xMidYMid meet">
<metadata>
Created by potrace 1.15, written by Peter Selinger 2001-2017
</metadata>
<g transform="translate(0.000000,2400.000000) scale(0.100000,-0.100000)"
fill="#000000" stroke="none">
<path d="M8830 23988 c-333 -27 -771 -137 -1095 -273 -157 -66 -571 -269
-1649 -808 l-1000 -499 -320 -3 c-231 -2 -349 -7 -421 -18 -665 -105 -1100
-486 -1255 -1102 -46 -181 -60 -311 -60 -553 0 -250 10 -386 47 -632 50 -343
49 -375 -23 -558 -93 -237 -431 -839 -610 -1088 -90 -125 -243 -447 -1200
-2536 l-384 -838 -11 -407 c-16 -634 -24 -3146 -10 -3571 35 -1062 75 -1374
280 -2160 49 -188 113 -445 141 -570 108 -476 161 -641 282 -882 169 -337 378
-619 688 -931 162 -163 274 -262 509 -452 96 -78 193 -159 213 -179 l38 -38
-26 -53 c-97 -192 -524 -845 -760 -1162 -142 -190 -269 -325 -342 -364 -21
-11 -27 -8 -65 31 -23 24 -63 73 -88 108 -110 154 -421 469 -654 663 -413 345
-758 509 -889 423 -62 -40 -132 -256 -156 -475 -27 -239 10 -519 134 -1031 99
-412 174 -628 315 -910 191 -383 472 -780 740 -1047 152 -151 244 -213 318
-213 37 0 54 9 140 74 251 190 805 734 1679 1646 157 165 397 420 827 883 219
235 402 427 406 427 4 0 113 -52 242 -116 396 -196 612 -287 972 -410 489
-166 1115 -328 1717 -445 193 -37 210 -42 210 -67 0 -26 -125 -230 -214 -349
-143 -192 -153 -194 -501 -98 -335 92 -377 98 -646 99 l-225 1 -86 -42 c-146
-73 -209 -164 -224 -325 -15 -167 68 -681 162 -1003 122 -413 397 -921 771
-1420 270 -359 495 -585 681 -682 60 -31 69 -33 168 -33 116 0 159 15 257 89
88 65 466 517 598 713 190 282 404 730 857 1793 322 756 423 975 475 1033 11
12 32 22 47 22 14 0 116 -24 226 -54 299 -81 507 -131 781 -186 382 -76 565
-101 803 -107 344 -9 433 14 929 236 63 28 166 70 230 92 205 73 354 151 618
325 556 369 1690 1320 1834 1539 15 22 43 66 63 98 31 50 40 57 67 57 18 0
143 -22 278 -49 410 -83 594 -103 971 -104 198 0 253 3 350 21 499 92 728 280
835 689 84 322 48 618 -104 842 -61 89 -169 209 -236 261 -32 25 -74 59 -93
76 l-35 31 202 101 c394 198 628 371 749 551 112 168 93 335 -53 476 -81 77
-207 155 -480 295 -398 205 -641 345 -694 403 l-24 26 45 50 c140 156 1588
2319 1876 2802 191 322 274 533 307 786 31 234 14 404 -55 551 -90 189 -231
318 -490 448 -499 250 -883 252 -1298 7 -203 -119 -285 -186 -560 -457 -328
-323 -603 -623 -1392 -1516 -872 -987 -1021 -1150 -1050 -1150 -9 0 -59 45
-110 100 -276 300 -667 536 -1110 669 -701 212 -1514 191 -2520 -64 -96 -25
-240 -65 -320 -90 -188 -59 -230 -68 -237 -47 -20 51 108 788 203 1167 148
592 357 1206 562 1650 33 72 138 292 234 490 279 573 362 770 502 1185 382
1137 648 2571 743 4010 21 326 24 1185 5 1430 -45 566 -142 972 -282 1175
-139 202 -911 813 -1350 1068 -613 356 -1264 510 -1920 455z m615 -638 c281
-40 620 -180 868 -357 267 -192 441 -404 740 -903 379 -634 544 -1032 603
-1455 25 -178 25 -650 0 -880 -35 -326 -102 -662 -248 -1250 -322 -1301 -747
-2713 -1353 -4500 -599 -1764 -645 -1914 -666 -2175 -13 -154 -4 -1091 12
-1280 16 -195 33 -228 132 -259 92 -28 195 -41 352 -44 l140 -2 13 210 c8 116
19 221 25 235 50 105 874 324 1356 361 213 16 780 7 916 -15 418 -67 838 -215
1194 -420 257 -148 451 -288 451 -324 0 -22 -405 -422 -452 -447 l-38 -19
-167 42 c-295 74 -383 84 -833 89 -429 6 -574 -2 -821 -43 -343 -56 -856 -198
-1132 -314 -93 -38 -114 -63 -98 -112 28 -83 180 -206 307 -248 107 -36 168
-39 579 -24 1193 44 1922 -85 2490 -439 325 -202 651 -574 836 -952 195 -401
296 -902 268 -1336 -15 -244 -53 -396 -144 -579 -23 -47 -52 -111 -64 -142
-18 -45 -41 -75 -109 -140 -198 -190 -889 -744 -1254 -1006 -559 -400 -919
-584 -1261 -642 -288 -48 -496 -36 -1209 70 -293 43 -583 81 -808 105 -206 22
-528 30 -619 16 -96 -15 -170 -47 -175 -75 -49 -248 -340 -1102 -595 -1740
-358 -896 -694 -1479 -911 -1580 -157 -73 -318 14 -516 280 -186 250 -408 727
-583 1251 -83 246 -151 476 -151 510 l0 23 73 -36 c39 -20 126 -67 192 -104
377 -211 494 -260 619 -260 227 0 382 158 694 708 148 259 226 385 353 567
128 185 154 230 173 294 47 160 -19 266 -233 375 -204 105 -452 176 -1206 347
-562 127 -792 184 -1084 265 -763 214 -1468 553 -2250 1081 -395 267 -602 434
-846 684 -185 190 -332 372 -480 594 -147 221 -215 342 -346 610 -279 572
-481 1227 -608 1975 -115 677 -161 1281 -161 2125 0 956 65 1797 205 2661 l34
211 354 814 c896 2059 979 2244 1019 2276 17 14 9 16 758 -127 2195 -418 3897
-727 4405 -799 77 -11 210 -27 295 -36 85 -8 220 -22 300 -32 95 -11 233 -17
400 -17 242 -1 257 0 302 21 26 12 59 33 74 48 30 30 25 42 -40 82 -265 168
-2196 693 -4196 1142 -745 167 -1391 299 -1690 346 -217 34 -240 40 -240 67 0
19 221 690 290 881 29 78 34 87 57 87 14 0 127 -23 252 -51 295 -66 448 -88
659 -96 94 -3 172 -10 172 -15 0 -5 -20 -49 -45 -98 -114 -227 -133 -395 -58
-500 71 -98 217 -175 403 -214 186 -38 381 -50 835 -50 378 -1 454 2 540 17
194 34 351 91 423 152 38 32 72 93 72 128 0 78 -71 187 -206 317 -151 145
-262 210 -360 210 -35 0 -51 -6 -71 -26 -26 -26 -26 -27 -18 -127 14 -190 14
-190 -20 -207 -38 -19 -537 -28 -602 -11 -87 24 -124 91 -88 160 20 40 112
121 208 184 176 115 603 338 962 502 288 132 334 164 391 279 44 90 49 165 15
240 -27 61 -140 176 -173 176 -34 0 -137 -37 -303 -107 -175 -75 -213 -89
-221 -80 -4 3 -1 63 6 133 37 363 -59 738 -312 1224 -45 85 -105 201 -134 258
-30 56 -54 111 -54 121 0 18 219 137 670 363 201 101 881 395 1359 587 275
111 494 171 691 190 123 12 633 12 715 1z m-3740 -1582 c88 -98 207 -375 272
-633 26 -102 28 -125 28 -310 0 -227 -10 -287 -61 -385 -63 -122 -172 -212
-309 -257 -71 -23 -100 -27 -255 -31 -194 -5 -254 3 -485 63 -149 38 -227 65
-232 81 -2 6 61 44 139 85 213 110 335 195 464 323 144 144 229 269 289 431
37 97 46 174 54 425 4 129 10 241 15 248 14 22 34 12 81 -40z m12461 -8103
c308 -103 498 -350 521 -679 31 -436 -273 -1039 -833 -1651 -150 -164 -275
-296 -1114 -1175 -752 -787 -840 -881 -840 -893 0 -28 306 -223 545 -347 261
-136 573 -241 775 -261 188 -19 272 -55 392 -167 95 -90 138 -177 145 -295 10
-152 -44 -245 -180 -312 -95 -47 -198 -65 -365 -65 -212 0 -409 36 -682 124
-165 54 -196 61 -205 46 -9 -14 57 -88 306 -345 232 -239 411 -434 475 -517
102 -132 197 -306 245 -450 29 -85 31 -100 27 -198 -6 -142 -30 -204 -112
-286 -209 -208 -676 -252 -1226 -113 -122 30 -280 87 -330 117 -51 32 -80 65
-80 94 0 15 13 88 29 161 44 195 51 275 51 563 0 313 -10 425 -55 598 -129
506 -405 967 -835 1396 -228 229 -462 409 -710 548 -68 38 -129 76 -134 85
-13 21 6 42 199 210 651 571 1062 949 1654 1526 897 873 1465 1524 1823 2089
50 79 106 155 124 170 84 68 237 78 390 27z m-14476 -8222 c158 -94 434 -265
453 -281 36 -31 30 -39 -202 -292 -563 -611 -1503 -1548 -1866 -1861 -354
-304 -605 -469 -715 -469 -81 0 -204 108 -312 275 -242 373 -517 1167 -663
1915 -31 159 -43 326 -26 358 15 29 60 29 118 0 115 -57 278 -216 810 -788
350 -377 560 -588 611 -614 43 -22 58 -16 147 55 171 137 576 605 1060 1224
455 582 426 547 460 541 16 -4 73 -32 125 -63z"/>
<path d="M9020 20860 c-337 -43 -653 -217 -877 -484 -232 -276 -418 -665 -522
-1089 -54 -216 -94 -443 -87 -481 4 -17 42 -87 85 -156 43 -69 108 -176 145
-238 123 -205 177 -240 571 -371 550 -183 1015 -281 1331 -281 617 0 901 181
1359 865 104 156 215 377 250 498 54 191 56 432 5 617 -59 211 -233 441 -463
612 -312 231 -805 417 -1307 493 -129 19 -389 27 -490 15z m1113 -524 c68 -28
197 -206 317 -438 87 -169 149 -319 195 -478 58 -201 70 -282 68 -480 -1 -197
-12 -247 -76 -362 -49 -88 -97 -140 -175 -191 -255 -169 -648 -170 -1250 -2
-293 82 -495 156 -475 176 5 5 81 16 169 24 180 16 280 30 374 51 319 72 565
212 713 407 172 225 213 497 131 876 -56 263 -64 305 -64 355 0 48 12 76 32
76 5 0 23 -6 41 -14z"/>
<path d="M7674 14881 c-90 -45 -256 -178 -296 -237 -34 -50 -40 -78 -244
-1073 -398 -1942 -620 -2886 -780 -3318 -53 -145 -125 -290 -177 -358 -90
-119 -405 -416 -730 -689 -271 -228 -312 -286 -312 -446 0 -116 22 -169 102
-246 94 -91 243 -151 461 -187 l133 -22 76 -145 c144 -275 260 -419 393 -489
55 -29 78 -36 147 -39 131 -7 232 36 376 161 98 85 265 305 358 473 l34 61
137 -126 c135 -125 228 -191 300 -213 31 -9 45 -8 83 6 109 42 169 116 400
494 l118 193 -12 101 c-7 65 -21 125 -40 173 -55 136 -101 203 -475 692 -154
201 -170 232 -157 299 26 135 158 468 589 1484 587 1386 819 1980 908 2326 26
101 28 124 29 299 0 187 0 191 -27 241 -53 100 -110 149 -208 178 -98 29 -226
15 -281 -32 -39 -32 -56 -72 -103 -234 -20 -70 -86 -286 -147 -480 -263 -838
-330 -1053 -379 -1223 -72 -253 -92 -303 -283 -725 -93 -206 -203 -457 -243
-558 -295 -733 -348 -1210 -173 -1568 42 -85 125 -195 264 -349 272 -302 355
-517 271 -701 -29 -62 -104 -147 -147 -164 -40 -17 -47 -10 -169 170 -55 80
-129 181 -165 223 -145 170 -293 237 -386 174 -50 -33 -110 -161 -175 -372
-109 -355 -184 -477 -292 -477 -79 0 -129 102 -158 326 -19 148 -28 186 -55
220 -42 54 -71 61 -214 56 -71 -2 -197 -4 -280 -4 -145 -1 -152 0 -208 27 -61
30 -107 80 -107 116 0 66 91 150 268 249 195 109 452 224 641 287 47 15 95 38
107 50 56 56 920 2831 1254 4030 182 653 260 1030 247 1200 -14 196 -104 250
-273 166z"/>
<path d="M11310 10733 c-32 -6 -60 -31 -60 -54 0 -10 12 -55 26 -101 115 -367
286 -574 471 -572 52 0 76 7 139 39 86 44 167 117 189 169 23 53 19 133 -9
192 -43 93 -197 218 -363 297 -66 31 -72 32 -218 34 -82 0 -161 -1 -175 -4z"/>
<path d="M12035 8326 c-102 -47 -249 -197 -362 -368 -58 -86 -69 -157 -34
-207 27 -37 138 -92 234 -116 157 -38 379 -56 409 -32 22 17 27 113 17 322
-12 244 -53 371 -133 409 -46 22 -72 20 -131 -8z"/>
<path d="M10891 7020 c-140 -67 -254 -171 -311 -284 -34 -67 -36 -92 -15 -228
48 -320 132 -364 379 -201 192 128 270 230 286 376 31 283 -125 438 -339 337z"/>
<path d="M10771 5912 c-56 -28 -76 -79 -76 -192 1 -132 22 -197 80 -248 83
-73 124 -87 250 -86 137 0 203 23 276 93 45 44 49 51 49 95 0 63 -27 113 -95
173 -100 89 -309 183 -409 183 -22 0 -56 -8 -75 -18z"/>
<path d="M11410 4874 c-69 -30 -130 -111 -130 -173 0 -18 28 -86 67 -162 94
-186 188 -279 281 -279 71 0 123 83 130 205 5 100 -9 172 -52 261 -66 137
-184 196 -296 148z"/>
</g>
</svg>
